<mxfile host="app.diagrams.net" modified="2023-08-28T14:25:50.317Z" agent="Mozilla/5.0 (Windows NT 10.0; Win64; x64) AppleWebKit/537.36 (KHTML, like Gecko) Chrome/115.0.0.0 Safari/537.36 OPR/101.0.0.0" version="21.6.9" etag="p7lLJPoT3Q5JiQO47Oqg" type="github">
  <diagram name="PÃ¡gina-1" id="iJotTd5h9RygmHZAr5y6">
    <mxGraphModel>
      <root>
        <mxCell id="0" />
        <mxCell id="1" parent="0" />
      </root>
    </mxGraphModel>
  </diagram>
</mxfile>
